<svg xmlns="http://www.w3.org/2000/svg" width="143" height="80" viewBox="0 0 143 80" fill="none"><path d="M37.432 33.112H39.032V44.248H43.832V45.848H37.432V33.112ZM48.816 33.112C49.7654 33.112 50.6934 33.3935 51.4827 33.9209C52.2721 34.4484 52.8873 35.198 53.2506 36.0751C53.6139 36.9522 53.709 37.9173 53.5238 38.8484C53.3386 39.7795 52.8814 40.6348 52.2101 41.3061C51.5388 41.9774 50.6835 42.4346 49.7524 42.6198C48.8213 42.805 47.8562 42.7099 46.9791 42.3466C46.102 41.9833 45.3524 41.3681 44.825 40.5787C44.2975 39.7894 44.016 38.8613 44.016 37.912C44.016 37.2817 44.1402 36.6575 44.3814 36.0751C44.6226 35.4928 44.9762 34.9636 45.4219 34.5179C45.8676 34.0722 46.3968 33.7186 46.9791 33.4774C47.5615 33.2362 48.1857 33.112 48.816 33.112ZM48.816 41.112C49.4489 41.112 50.0676 40.9243 50.5938 40.5727C51.1201 40.2211 51.5302 39.7213 51.7724 39.1366C52.0146 38.5519 52.078 37.9084 51.9545 37.2877C51.831 36.667 51.5263 36.0968 51.0787 35.6493C50.6312 35.2017 50.061 34.897 49.4403 34.7735C48.8196 34.65 48.1761 34.7134 47.5914 34.9556C47.0067 35.1978 46.5069 35.6079 46.1553 36.1342C45.8037 36.6604 45.616 37.2791 45.616 37.912C45.6202 38.7579 45.9592 39.5677 46.5589 40.1644C47.1586 40.7611 47.9701 41.096 48.816 41.096V41.112ZM45.616 44.264H52.016V45.864H45.616V44.264ZM66.096 45.864H64.496V44.72C63.4642 45.4423 62.2355 45.8304 60.976 45.832C59.902 45.8392 58.8435 45.576 57.8979 45.0666C56.9524 44.5572 56.1502 43.8181 55.5653 42.9173C54.9805 42.0165 54.6317 40.983 54.5512 39.912C54.4707 38.841 54.661 37.7669 55.1046 36.7888C55.5482 35.8106 56.2308 34.9599 57.0896 34.3149C57.9483 33.6698 58.9556 33.2513 60.0186 33.0978C61.0816 32.9443 62.1661 33.0609 63.1723 33.4366C64.1784 33.8124 65.0738 34.4353 65.776 35.248L64.6 36.296C64.066 35.6989 63.3909 35.245 62.6365 34.9756C61.8821 34.7062 61.0723 34.6299 60.2808 34.7536C59.4893 34.8774 58.7414 35.1973 58.1052 35.6841C57.4691 36.1709 56.9648 36.8092 56.6385 37.5409C56.3122 38.2725 56.1742 39.0741 56.2371 39.8727C56.3 40.6713 56.5617 41.4415 56.9985 42.113C57.4352 42.7846 58.0331 43.3361 58.7377 43.7174C59.4422 44.0987 60.2309 44.2976 61.032 44.296C61.6968 44.2974 62.3541 44.1551 62.9589 43.879C63.5636 43.6028 64.1016 43.1993 64.536 42.696H60.216V41.096H66.112L66.096 45.864ZM71.984 33.144C72.9333 33.144 73.8614 33.4255 74.6507 33.9529C75.4401 34.4804 76.0553 35.23 76.4186 36.1071C76.7819 36.9842 76.877 37.9493 76.6918 38.8804C76.5066 39.8115 76.0494 40.6668 75.3781 41.3381C74.7068 42.0094 73.8515 42.4666 72.9204 42.6518C71.9893 42.837 71.0242 42.7419 70.1471 42.3786C69.27 42.0153 68.5204 41.4001 67.9929 40.6107C67.4655 39.8214 67.184 38.8933 67.184 37.944C67.1798 37.3096 67.3013 36.6807 67.5417 36.0936C67.782 35.5065 68.1363 34.9728 68.5842 34.5235C69.032 34.0742 69.5645 33.7181 70.1508 33.4758C70.7371 33.2335 71.3656 33.1099 72 33.112L71.984 33.144ZM71.984 41.144C72.6169 41.144 73.2356 40.9563 73.7618 40.6047C74.2881 40.2531 74.6982 39.7533 74.9404 39.1686C75.1826 38.5839 75.246 37.9404 75.1225 37.3197C74.999 36.699 74.6943 36.1288 74.2467 35.6813C73.7992 35.2337 73.229 34.929 72.6083 34.8055C71.9876 34.682 71.3441 34.7454 70.7594 34.9876C70.1747 35.2298 69.6749 35.6399 69.3233 36.1662C68.9717 36.6924 68.784 37.3111 68.784 37.944C68.7966 38.7871 69.1415 39.5912 69.7438 40.1814C70.346 40.7716 71.1568 41.1003 72 41.096L71.984 41.144ZM68.784 44.296H75.184V45.896H68.784V44.296ZM78.488 33.112H80.088V45.832H78.488V33.112ZM82.304 33.112H83.904C83.9864 33.1033 84.0696 33.1033 84.152 33.112C84.8221 33.0393 85.5 33.1085 86.1415 33.3152C86.7831 33.5219 87.3739 33.8614 87.8756 34.3115C88.3772 34.7617 88.7784 35.3125 89.0531 35.928C89.3277 36.5435 89.4697 37.21 89.4697 37.884C89.4697 38.558 89.3277 39.2245 89.0531 39.84C88.7784 40.4555 88.3772 41.0063 87.8756 41.4565C87.3739 41.9066 86.7831 42.2461 86.1415 42.4528C85.5 42.6594 84.8221 42.7287 84.152 42.656H83.904V45.856H82.304V33.112ZM83.904 34.712V41.04H84.152C84.6039 41.1002 85.0635 41.0631 85.4999 40.9312C85.9363 40.7994 86.3395 40.5758 86.6825 40.2754C87.0255 39.9751 87.3004 39.6049 87.4887 39.1897C87.677 38.7745 87.7744 38.3239 87.7744 37.868C87.7744 37.4121 87.677 36.9614 87.4887 36.5463C87.3004 36.1311 87.0255 35.7609 86.6825 35.4605C86.3395 35.1602 85.9363 34.9366 85.4999 34.8048C85.0635 34.6729 84.6039 34.6358 84.152 34.696C84.0648 34.7051 83.979 34.7239 83.896 34.752L83.904 34.712ZM95.432 34.032L94.248 34.968C94.0437 34.7546 93.7828 34.6039 93.4958 34.5336C93.2089 34.4634 92.9078 34.4765 92.628 34.5714C92.3483 34.6663 92.1014 34.8392 91.9165 35.0695C91.7315 35.2999 91.6162 35.5783 91.584 35.872V36C91.584 36.704 92.072 37.176 93.024 37.24C96.688 37.464 98.368 39.184 98.368 41.456V41.6C98.2734 42.4992 97.9225 43.3524 97.3571 44.0579C96.7916 44.7635 96.0354 45.2918 95.1784 45.58C94.3213 45.8682 93.3996 45.9042 92.5227 45.6836C91.6458 45.4631 90.8507 44.9953 90.232 44.336L91.456 43.392C91.7409 43.6973 92.0888 43.937 92.4756 44.0945C92.8624 44.252 93.2788 44.3235 93.696 44.304C94.4665 44.3446 95.223 44.086 95.8073 43.5821C96.3917 43.0783 96.7588 42.3681 96.832 41.6V41.488C96.832 39.352 94.736 38.96 92.92 38.784C91.24 38.624 90.032 37.576 90.032 36.064V36C90.0912 35.2128 90.4505 34.4784 91.0355 33.9484C91.6206 33.4185 92.3868 33.1334 93.176 33.152C93.5942 33.1396 94.0103 33.2151 94.3976 33.3736C94.7848 33.5321 95.1344 33.77 95.424 34.072L95.432 34.032ZM104.632 44.208C106.624 44.208 108.2 42.056 108.2 39.408V33.008H109.8V39.408C109.8 42.928 107.496 45.768 104.664 45.768C101.832 45.768 99.528 42.928 99.528 39.408V33.008H101.128V39.408C101.064 42.096 102.64 44.248 104.624 44.248L104.632 44.208ZM122.08 45.808H120.48V37.888L116.792 42.688L113.104 37.888V45.832H111.504V33.112L116.784 40.064L122.064 33.112L122.08 45.808Z" fill="#4C5262"></path><path d="M29.752 31.2C29.752 30.0457 29.2935 28.9388 28.4773 28.1226C27.6612 27.3065 26.5542 26.848 25.4 26.848C24.2458 26.848 23.1388 27.3065 22.3227 28.1226C21.5065 28.9388 21.048 30.0457 21.048 31.2V44.36L24.632 46.928V53.184H26.168V46.928L29.752 44.36V31.2ZM28.216 38.56L26.168 40.608V38.688L28.216 36.64V38.56ZM22.616 36.64L24.664 38.688V40.608L22.616 38.56V36.64ZM28.216 34.464L25.4 37.28L22.584 34.4V32.48L25.4 35.296L28.216 32.48V34.464ZM25.4 28.384C26.0193 28.3867 26.6207 28.5924 27.1119 28.9695C27.6032 29.3466 27.9573 29.8744 28.12 30.472L25.4 33.184L22.68 30.472C22.8368 29.8684 23.1883 29.3335 23.6801 28.9502C24.1719 28.5669 24.7765 28.3566 25.4 28.352V28.384ZM22.584 43.584V40.704L24.632 42.752V45.04L22.584 43.584ZM26.168 45.048V42.752L28.216 40.704V43.576L26.168 45.048Z" fill="#4C5262"></path></svg>