<svg width="137" height="23" viewBox="0 0 137 23" fill="none" xmlns="http://www.w3.org/2000/svg">
<path d="M2.224 22.5L2.288 22.18L3.056 21.892C4.03733 21.4867 4.63467 20.7613 4.848 19.716L6.416 11.3C6.58667 10.404 6.768 9.412 6.96 8.324C7.17333 7.21467 7.376 6.116 7.568 5.028C7.76 3.91867 7.93067 2.916 8.08 2.02H6.704C5.936 2.02 5.27467 2.15867 4.72 2.436C4.16533 2.71333 3.664 3.16133 3.216 3.78L0.656 7.268H0.336L1.52 1.38H19.248L18.224 7.268H17.904L16.72 4.036C16.2507 2.692 15.28 2.02 13.808 2.02H12.496L10.512 12.548C10.2987 13.636 10.0747 14.8093 9.84 16.068C9.62667 17.3053 9.41333 18.5107 9.2 19.684C9.008 20.7933 9.424 21.5613 10.448 21.988L10.864 22.18L10.8 22.5H2.224ZM22.7565 4.836C22.1592 4.836 21.6365 4.644 21.1885 4.26C20.7618 3.85467 20.5485 3.32133 20.5485 2.66C20.5485 1.91333 20.8045 1.30533 21.3165 0.835999C21.8498 0.345332 22.4472 0.0999985 23.1085 0.0999985C23.7485 0.0999985 24.2712 0.302665 24.6765 0.707998C25.0818 1.11333 25.2845 1.636 25.2845 2.276C25.2845 3.00133 25.0285 3.60933 24.5165 4.1C24.0045 4.59067 23.4178 4.836 22.7565 4.836ZM19.7805 22.98C19.1192 22.98 18.5752 22.8093 18.1485 22.468C17.7218 22.1267 17.5085 21.6253 17.5085 20.964C17.5085 20.58 17.5512 20.1213 17.6365 19.588C17.7218 19.0547 17.8178 18.5213 17.9245 17.988L19.4285 10.788C19.6205 9.91333 19.3112 9.29467 18.5005 8.932L17.9885 8.676L18.0205 8.324L24.0365 6.596L24.3565 6.884L21.8605 18.468C21.7752 18.852 21.7112 19.1827 21.6685 19.46C21.6258 19.716 21.6045 19.972 21.6045 20.228C21.6045 20.6973 21.8178 20.932 22.2445 20.932C22.5645 20.932 22.8845 20.836 23.2045 20.644C23.5245 20.4307 23.9298 20.0893 24.4205 19.62L24.7085 19.908C24.1752 20.6973 23.4925 21.412 22.6605 22.052C21.8498 22.6707 20.8898 22.98 19.7805 22.98ZM29.2495 22.5L25.3455 22.724L25.0895 22.5L27.5535 10.724C27.7455 9.87067 27.4468 9.284 26.6575 8.964L26.0815 8.676L26.1455 8.356L32.0975 6.596L32.3855 6.884L31.7135 10.34C32.8015 9.20933 33.9108 8.31333 35.0415 7.652C36.1722 6.96933 37.2282 6.628 38.2095 6.628C38.8922 6.628 39.4575 6.84133 39.9055 7.268C40.3535 7.67333 40.5775 8.31333 40.5775 9.188C40.5775 9.38 40.5668 9.572 40.5455 9.764C40.5242 9.956 40.5028 10.1587 40.4815 10.372C41.5482 9.22 42.6255 8.31333 43.7135 7.652C44.8228 6.96933 45.8788 6.628 46.8815 6.628C47.5642 6.628 48.1188 6.84133 48.5455 7.268C48.9935 7.67333 49.2175 8.31333 49.2175 9.188C49.2175 9.636 49.1748 10.1053 49.0895 10.596C49.0042 11.0653 48.8975 11.556 48.7695 12.068L47.1055 18.916C47.0202 19.2573 46.9455 19.5453 46.8815 19.78C46.8175 20.0147 46.7855 20.2173 46.7855 20.388C46.7855 20.836 46.9668 21.06 47.3295 21.06C47.6495 21.06 48.0015 20.932 48.3855 20.676C48.7908 20.3987 49.2282 20.0253 49.6975 19.556L50.0175 19.876C49.7188 20.3453 49.3242 20.8253 48.8335 21.316C48.3428 21.7853 47.7668 22.18 47.1055 22.5C46.4655 22.82 45.7402 22.98 44.9295 22.98C44.2255 22.98 43.6815 22.82 43.2975 22.5C42.9135 22.1587 42.7215 21.6893 42.7215 21.092C42.7215 20.644 42.7748 20.1853 42.8815 19.716C42.9882 19.2253 43.1162 18.724 43.2655 18.212L44.5775 12.804C44.7055 12.2493 44.8122 11.7373 44.8975 11.268C45.0042 10.7987 45.0575 10.4147 45.0575 10.116C45.0575 9.36933 44.7162 8.996 44.0335 8.996C43.0522 8.996 41.8148 9.732 40.3215 11.204C40.3002 11.2467 40.2788 11.3 40.2575 11.364C40.2575 11.4067 40.2575 11.46 40.2575 11.524L39.3615 15.684C39.1268 16.8147 38.9028 17.9453 38.6895 19.076C38.4762 20.2067 38.2522 21.348 38.0175 22.5L34.1455 22.724L33.8895 22.5L36.0335 12.356C36.1188 11.9293 36.1935 11.5347 36.2575 11.172C36.3215 10.788 36.3535 10.4573 36.3535 10.18C36.3535 9.476 36.0335 9.124 35.3935 9.124C34.3055 9.124 33.0255 9.81733 31.5535 11.204L30.5615 15.684C30.3268 16.8147 30.1028 17.9453 29.8895 19.076C29.6762 20.2067 29.4628 21.348 29.2495 22.5ZM54.0108 22.628L52.1868 3.428C52.1228 2.70267 51.7388 2.19066 51.0348 1.892L50.6508 1.7L50.7148 1.38H58.3628L58.2988 1.7L57.5948 1.956C56.9121 2.19067 56.5921 2.692 56.6348 3.46L57.5948 17.668L63.4828 5.892L63.1948 3.492C63.1094 2.74533 62.7148 2.23333 62.0108 1.956L61.3068 1.7L61.3708 1.38H69.1468L69.0828 1.7L68.2188 2.02C67.5148 2.276 67.2161 2.77733 67.3228 3.524L68.8908 17.732L75.2588 3.492C75.5574 2.76667 75.3441 2.25467 74.6188 1.956L73.9788 1.7L74.0428 1.38H78.7468L78.6828 1.7L77.9148 1.956C77.4881 2.10533 77.1361 2.308 76.8588 2.564C76.5814 2.82 76.3468 3.15067 76.1548 3.556L67.7068 22.628H65.4348L63.6748 7.588L56.2508 22.628H54.0108ZM78.4288 22.98C77.8314 22.98 77.2661 22.8413 76.7328 22.564C76.1994 22.2867 75.7621 21.828 75.4208 21.188C75.1008 20.548 74.9408 19.7053 74.9408 18.66C74.9408 17.5293 75.1648 16.3987 75.6128 15.268C76.0608 14.116 76.6581 13.028 77.4048 12.004C78.1514 10.9587 78.9834 10.0413 79.9008 9.252C80.8181 8.44133 81.7674 7.80133 82.7488 7.332C83.7301 6.86267 84.6581 6.628 85.5328 6.628C85.9594 6.628 86.3541 6.71333 86.7168 6.884C87.1008 7.03333 87.4634 7.24667 87.8048 7.524L90.3968 6.532L90.6528 6.692L87.8688 18.948C87.7194 19.5453 87.6448 20.036 87.6448 20.42C87.6448 20.868 87.8474 21.092 88.2528 21.092C88.5514 21.092 88.8928 20.9533 89.2768 20.676C89.6821 20.3987 90.1408 20.0253 90.6528 19.556L90.9088 19.812C90.5888 20.324 90.1834 20.8253 89.6928 21.316C89.2234 21.7853 88.6901 22.18 88.0928 22.5C87.5168 22.82 86.8981 22.98 86.2368 22.98C85.5114 22.98 84.9248 22.7667 84.4768 22.34C84.0288 21.892 83.8048 21.2093 83.8048 20.292C83.8048 19.9933 83.8154 19.7053 83.8368 19.428C82.9834 20.388 82.0768 21.22 81.1168 21.924C80.1781 22.628 79.2821 22.98 78.4288 22.98ZM78.7168 17.22C78.7168 18.3507 78.8981 19.172 79.2608 19.684C79.6448 20.1747 80.1461 20.42 80.7648 20.42C81.2768 20.42 81.7888 20.26 82.3008 19.94C82.8128 19.62 83.3674 19.1613 83.9648 18.564C84.0074 18.308 84.0608 18.0413 84.1248 17.764L86.1408 8.548C85.8634 8.20667 85.5328 7.972 85.1488 7.844C84.7648 7.716 84.4234 7.652 84.1248 7.652C83.2074 7.652 82.2474 8.196 81.2448 9.284C80.4554 10.1587 79.8368 11.3107 79.3888 12.74C78.9408 14.1693 78.7168 15.6627 78.7168 17.22ZM94.026 22.98C93.322 22.98 92.7567 22.7987 92.33 22.436C91.9247 22.0733 91.722 21.5507 91.722 20.868C91.722 20.484 91.7647 20.0253 91.85 19.492C91.9353 18.9373 92.0633 18.2333 92.234 17.38L94.058 8.548C94.2287 7.73733 94.3673 7.00133 94.474 6.34C94.602 5.67867 94.7407 4.932 94.89 4.1C95.0393 3.24667 94.698 2.67067 93.866 2.372L93.322 2.18L93.386 1.86L99.658 0.0679989L99.85 0.292L95.914 18.852C95.85 19.172 95.7967 19.46 95.754 19.716C95.7113 19.9507 95.69 20.1533 95.69 20.324C95.69 20.7933 95.8927 21.028 96.298 21.028C96.8313 21.028 97.61 20.548 98.634 19.588L98.954 19.844C98.4207 20.6333 97.7487 21.3587 96.938 22.02C96.1273 22.66 95.1567 22.98 94.026 22.98ZM102.546 22.98C101.884 22.98 101.33 22.8093 100.882 22.468C100.455 22.1053 100.242 21.5827 100.242 20.9C100.242 20.4733 100.284 20.0147 100.37 19.524C100.455 19.012 100.551 18.468 100.658 17.892L102.866 7.78H100.21L100.306 7.396L101.458 7.268C102.055 7.204 102.578 7.05467 103.026 6.82C103.474 6.58533 103.9 6.25467 104.306 5.828L107.378 2.724H107.858L106.962 7.108H110.45L110.29 7.78H106.802L104.594 18.436C104.508 18.8413 104.444 19.1933 104.402 19.492C104.359 19.7693 104.338 20.004 104.338 20.196C104.338 20.4093 104.402 20.58 104.53 20.708C104.658 20.836 104.796 20.9 104.946 20.9C105.244 20.9 105.564 20.7827 105.906 20.548C106.247 20.292 106.674 19.9187 107.186 19.428L107.57 19.748C107.036 20.5373 106.343 21.2733 105.49 21.956C104.636 22.6387 103.655 22.98 102.546 22.98ZM114.728 22.98C113.128 22.98 111.826 22.4573 110.824 21.412C109.821 20.3667 109.32 18.884 109.32 16.964C109.32 15.5987 109.554 14.2973 110.024 13.06C110.493 11.8227 111.144 10.724 111.976 9.764C112.829 8.78267 113.81 8.01467 114.92 7.46C116.029 6.90533 117.234 6.628 118.536 6.628C119.88 6.628 120.904 6.93733 121.608 7.556C122.333 8.15333 122.696 8.95333 122.696 9.956C122.696 10.788 122.301 11.6093 121.512 12.42C120.744 13.2307 119.656 13.9667 118.248 14.628C116.84 15.268 115.186 15.7587 113.288 16.1C113.309 17.572 113.629 18.6493 114.248 19.332C114.866 20.0147 115.72 20.356 116.808 20.356C117.725 20.356 118.568 20.1107 119.336 19.62C120.104 19.108 120.754 18.5107 121.288 17.828L121.608 18.052C121.181 18.884 120.626 19.6733 119.944 20.42C119.282 21.1667 118.514 21.7853 117.64 22.276C116.765 22.7453 115.794 22.98 114.728 22.98ZM118.312 7.492C117.821 7.492 117.288 7.70533 116.712 8.132C116.157 8.55867 115.624 9.14533 115.112 9.892C114.621 10.6173 114.205 11.46 113.864 12.42C113.544 13.3587 113.352 14.3613 113.288 15.428C115.634 14.788 117.298 13.9453 118.28 12.9C119.282 11.8547 119.784 10.6707 119.784 9.348C119.784 8.708 119.645 8.23867 119.368 7.94C119.09 7.64133 118.738 7.492 118.312 7.492ZM122.753 22.724L122.433 22.5L124.865 10.788C124.972 10.2333 124.94 9.828 124.769 9.572C124.599 9.29467 124.311 9.07067 123.905 8.9L123.425 8.676L123.489 8.356L129.057 6.596L129.377 6.884L128.513 12.164C128.961 11.14 129.484 10.212 130.081 9.38C130.679 8.548 131.308 7.88667 131.969 7.396C132.631 6.884 133.292 6.628 133.953 6.628C134.615 6.628 135.148 6.80933 135.553 7.172C135.959 7.51333 136.161 7.972 136.161 8.548C136.161 9.14533 135.98 9.636 135.617 10.02C135.276 10.404 134.807 10.596 134.209 10.596C133.74 10.596 133.292 10.4787 132.865 10.244C132.439 9.988 132.023 9.62533 131.617 9.156C130.871 9.71067 130.231 10.436 129.697 11.332C129.164 12.2067 128.673 13.1667 128.225 14.212L127.905 15.684C127.671 16.8147 127.447 17.9453 127.233 19.076C127.02 20.2067 126.807 21.348 126.593 22.5L122.753 22.724Z" fill="white"/>
</svg>
